<?xml version="1.0" encoding="UTF-8" standalone="no"?>
<svg
   xmlns:dc="http://purl.org/dc/elements/1.1/"
   xmlns:cc="http://creativecommons.org/ns#"
   xmlns:rdf="http://www.w3.org/1999/02/22-rdf-syntax-ns#"
   xmlns:svg="http://www.w3.org/2000/svg"
   xmlns="http://www.w3.org/2000/svg"
   xmlns:xlink="http://www.w3.org/1999/xlink"
   xmlns:sodipodi="http://sodipodi.sourceforge.net/DTD/sodipodi-0.dtd"
   xmlns:inkscape="http://www.inkscape.org/namespaces/inkscape"
   inkscape:version="1.0 (6e3e5246a0, 2020-05-07)"
   sodipodi:docname="Logo_font_platinum.svg"
   viewBox="0 0 2546.6667 466.66673"
   height="466.66675"
   width="2546.6667"
   xml:space="preserve"
   id="svg1296"
   version="1.1"
   inkscape:export-filename="/home/balazs/logo_o_grey_2.png"
   inkscape:export-xdpi="16.209999"
   inkscape:export-ydpi="16.209999"><metadata
     id="metadata1302"><rdf:RDF><cc:Work
         rdf:about=""><dc:format>image/svg+xml</dc:format><dc:type
           rdf:resource="http://purl.org/dc/dcmitype/StillImage" /><dc:title></dc:title></cc:Work></rdf:RDF></metadata><defs
     id="defs1300"><clipPath
       id="clipPath1320"
       clipPathUnits="userSpaceOnUse"><path
         id="path1318"
         d="M 0,2000 H 2000 V 0 H 0 Z" /></clipPath><linearGradient
       id="linearGradient1370"
       spreadMethod="pad"
       gradientTransform="matrix(195.02853,-219.79404,-219.79404,-195.02853,126.35859,1119.5194)"
       gradientUnits="userSpaceOnUse"
       y2="0.0085986769"
       x2="0.79241037"
       y1="0"
       x1="0"><stop
         id="stop1366"
         offset="0"
         style="stop-opacity:1;stop-color:#56ccf2" /><stop
         id="stop1368"
         offset="1"
         style="stop-opacity:1;stop-color:#2f80ed" /></linearGradient><linearGradient
       xlink:href="#linearGradient1370"
       id="linearGradient1390"
       spreadMethod="pad"
       gradientTransform="matrix(195.02853,-219.79404,-219.79404,-195.02853,205.61426,1189.8448)"
       gradientUnits="userSpaceOnUse"
       y2="0.0031879458"
       x2="0.87812948"
       y1="0"
       x1="0"><stop
         id="stop1386"
         offset="0"
         style="stop-opacity:1;stop-color:#56ccf2" /><stop
         id="stop1388"
         offset="1"
         style="stop-opacity:1;stop-color:#2f80ed" /></linearGradient><linearGradient
       inkscape:collect="always"
       xlink:href="#linearGradient1370"
       id="linearGradient136"
       gradientUnits="userSpaceOnUse"
       gradientTransform="matrix(195.02853,-219.79404,-219.79404,-195.02853,126.35859,1119.5194)"
       x1="0"
       y1="0"
       x2="0.79241037"
       y2="0.0085986769"
       spreadMethod="pad" /></defs><sodipodi:namedview
     inkscape:current-layer="g1304"
     inkscape:window-maximized="1"
     inkscape:window-y="26"
     inkscape:window-x="72"
     inkscape:cy="402.63561"
     inkscape:cx="1421.9175"
     inkscape:zoom="0.53457271"
     showgrid="false"
     id="namedview1298"
     inkscape:window-height="1386"
     inkscape:window-width="2488"
     inkscape:pageshadow="2"
     inkscape:pageopacity="0"
     guidetolerance="10"
     gridtolerance="10"
     objecttolerance="10"
     borderopacity="1"
     bordercolor="#666666"
     pagecolor="#ffffff"
     inkscape:document-rotation="0" /><g
     transform="matrix(1.3333333,0,0,-1.3333333,0,2666.6667)"
     inkscape:label="Project_5_Rev_Fin"
     inkscape:groupmode="layer"
     id="g1304"><g
       style="fill:#686868;fill-opacity:1"
       transform="translate(486.97635,1900.2278)"
       id="g1306"><path
         id="path1308"
         style="fill:#686868;fill-opacity:1;fill-rule:nonzero;stroke:none"
         d="M 0,0 V -15.883 H -49.15 V -150.24 h -17.17 v 134.357 h -48.937 V 0 Z" /></g><g
       style="fill-opacity:1;fill:#686868"
       transform="translate(596.44215,1804.2884)"
       id="g1310"><path
         id="path1312"
         style="fill:#686868;fill-opacity:1;fill-rule:nonzero;stroke:none"
         d="M 0,0 -34.127,77.266 -67.823,0 Z m 6.867,-15.883 h -81.772 l -16.742,-38.418 h -18.243 l 67.394,150.24 h 17.813 L 42.496,-54.301 H 23.823 Z" /></g><g
       inkscape:export-ydpi="10"
       inkscape:export-xdpi="10"
       inkscape:export-filename="/home/balazs/logo_o_grey_2.png"
       style="fill:#686868;fill-opacity:1"
       id="g1314"
       transform="translate(-45.000248,825.00032)"><g
         style="fill:#686868;fill-opacity:1"
         clip-path="url(#clipPath1320)"
         id="g1316"><g
           style="fill:#686868;fill-opacity:1"
           transform="translate(819.3721,967.9131)"
           id="g1322"><path
             id="path1324"
             style="fill:#686868;fill-opacity:1;fill-rule:nonzero;stroke:none"
             d="M 0,0 C 0,16.741 -14.165,26.613 -38.633,26.399 H -83.92 v -53.442 h 45.287 C -14.165,-27.258 0,-17.386 0,0 m -6.653,67.179 c 0,15.453 -11.805,24.253 -31.98,24.253 H -83.92 v -49.15 h 45.287 c 20.175,0 31.98,9.014 31.98,24.897 m 17.599,2.575 c 0,-17.599 -10.516,-30.262 -27.901,-33.911 21.678,-3.219 34.34,-17.385 34.34,-37.989 0,-25.541 -20.175,-40.78 -54.301,-40.78 h -64.174 v 150.24 h 63.316 c 30.262,0 48.72,-13.95 48.72,-37.56" /></g><g
           style="fill:#686868;fill-opacity:1"
           transform="translate(978.2012,1075.2275)"
           id="g1326"><path
             id="path1328"
             style="fill:#686868;fill-opacity:1;fill-rule:nonzero;stroke:none"
             d="M 0,0 V -15.883 H -78.34 V -69.755 H -8.156 V -85.423 H -78.34 V -150.24 H -95.511 V 0 Z" /></g><g
           style="fill:#686868;fill-opacity:1"
           transform="translate(1031.4316,1075.2275)"
           id="g1330"><path
             id="path1332"
             style="fill:#686868;fill-opacity:1;fill-rule:nonzero;stroke:none"
             d="M 0,0 V -134.357 H 65.892 V -150.24 H -17.171 V 0 Z" /></g><g
           style="fill:#686868;fill-opacity:1"
           transform="translate(1139.1787,1000.1074)"
           id="g1334"><path
             id="path1336"
             style="fill:#686868;fill-opacity:1;fill-rule:nonzero;stroke:none"
             d="m 0,0 c 0,-33.268 27.902,-60.096 61.384,-60.096 33.483,0 60.955,26.828 60.955,60.096 0,33.267 -27.472,59.667 -60.955,59.667 C 27.902,59.667 0,33.267 0,0 m 139.937,0 c 0,-42.282 -34.768,-75.764 -78.553,-75.764 -43.999,0 -78.768,33.482 -78.768,75.764 0,42.282 34.769,75.549 78.768,75.549 43.785,0 78.553,-33.267 78.553,-75.549" /></g><g
           style="fill:#686868;fill-opacity:1"
           transform="translate(1405.5371,979.2881)"
           id="g1338"><path
             id="path1340"
             style="fill:#686868;fill-opacity:1;fill-rule:nonzero;stroke:none"
             d="M 0,0 -34.125,77.266 -67.822,0 Z m 6.869,-15.883 h -81.773 l -16.742,-38.418 h -18.244 l 67.394,150.24 h 17.814 L 42.497,-54.301 H 23.825 Z" /></g><g
           style="fill:#686868;fill-opacity:1"
           transform="translate(1563.0791,1075.2275)"
           id="g1342"><path
             id="path1344"
             style="fill:#686868;fill-opacity:1;fill-rule:nonzero;stroke:none"
             d="M 0,0 V -15.883 H -49.15 V -150.24 h -17.171 v 134.357 h -48.935 V 0 Z" /></g><g
           style="fill:#686868;fill-opacity:1"
           transform="translate(1700.6602,1075.2275)"
           id="g1346"><path
             id="path1348"
             style="fill:#686868;fill-opacity:1;fill-rule:nonzero;stroke:none"
             d="M 0,0 V -15.883 H -84.778 V -66.32 h 75.764 v -15.668 h -75.764 v -52.369 H 2.791 v -15.883 h -104.74 V 0 Z" /></g><g
           style="fill:#686868;fill-opacity:1"
           transform="translate(1806.2607,988.5176)"
           id="g1350"><path
             id="path1352"
             style="fill:#686868;fill-opacity:1;fill-rule:nonzero;stroke:none"
             d="M 0,0 C 27.257,0 42.71,12.233 42.71,35.842 42.71,58.808 27.257,70.827 0,70.827 H -39.921 V 0 Z M 41.208,-63.53 9.658,-15.454 C 6.652,-15.668 3.434,-15.883 0,-15.883 H -39.921 V -63.53 H -57.092 V 86.71 H 0 c 37.561,0 59.236,-18.458 59.236,-50.438 0,-24.682 -12.232,-41.638 -33.91,-48.506 L 60.739,-63.53 Z" /></g></g></g><g
       id="g1354"
       transform="translate(-45.000248,825.00032)"><g
         id="g1356"><g
           id="g1362"><g
             id="g1364"><path
               id="path1372"
               style="fill:url(#linearGradient136);stroke:none"
               d="m 133,1099.411 c 0,-31.547 25.573,-57.12 57.12,-57.12 v 0 h 13.731 v -84.582 c 0,-31.547 25.573,-57.12 57.119,-57.12 v 0 141.702 c 0,31.547 -25.572,57.12 -57.119,57.12 v 0 z" /></g></g></g></g><g
       id="g1374"
       transform="translate(-45.000248,825.00032)"><g
         id="g1376"><g
           id="g1382"><g
             id="g1384"><path
               id="path1392"
               style="fill:url(#linearGradient1390);fill-opacity:1;stroke:none"
               d="m 260.056,1099.411 c 0,-31.547 25.572,-57.12 57.12,-57.12 v 0 h 13.731 v 57.12 z" /></g></g></g></g></g></svg>
