<?xml version="1.0" encoding="UTF-8" standalone="no"?>
<svg
   xmlns:dc="http://purl.org/dc/elements/1.1/"
   xmlns:cc="http://creativecommons.org/ns#"
   xmlns:rdf="http://www.w3.org/1999/02/22-rdf-syntax-ns#"
   xmlns:svg="http://www.w3.org/2000/svg"
   xmlns="http://www.w3.org/2000/svg"
   xmlns:sodipodi="http://sodipodi.sourceforge.net/DTD/sodipodi-0.dtd"
   xmlns:inkscape="http://www.inkscape.org/namespaces/inkscape"
   inkscape:version="1.0 (6e3e5246a0, 2020-05-07)"
   inkscape:export-ydpi="1.1250001"
   inkscape:export-xdpi="1.1250001"
   inkscape:export-filename="/home/balazs/blue5_16.png"
   sodipodi:docname="Project_4_Rev_Fin_myfinal_2.ai.svg"
   viewBox="0 0 1365.3333 1365.3333"
   height="1365.3333"
   width="1365.3333"
   xml:space="preserve"
   id="svg334"
   version="1.1"><metadata
     id="metadata340"><rdf:RDF><cc:Work
         rdf:about=""><dc:format>image/svg+xml</dc:format><dc:type
           rdf:resource="http://purl.org/dc/dcmitype/StillImage" /><dc:title /></cc:Work></rdf:RDF></metadata><defs
     id="defs338"><linearGradient
       id="linearGradient360"
       spreadMethod="reflect"
       gradientTransform="matrix(1341.1143,-1341.1143,-1341.1143,-1341.1143,-453.22418,1477.2242)"
       gradientUnits="userSpaceOnUse"
       y2="-1.6653345e-16"
       x2="1"
       y1="0.00078037067"
       x1="0.044528358"><stop
         id="stop356"
         offset="0"
         style="stop-opacity:1;stop-color:#56ccf2" /><stop
         id="stop358"
         offset="1"
         style="stop-opacity:1;stop-color:#2f80ed" /></linearGradient><clipPath
       id="clipPath370"
       clipPathUnits="userSpaceOnUse"><path
         id="path368"
         d="M 0,1024 H 1024 V 0 H 0 Z" /></clipPath></defs><sodipodi:namedview
     inkscape:current-layer="g342"
     inkscape:window-maximized="1"
     inkscape:window-y="26"
     inkscape:window-x="72"
     inkscape:cy="668.85751"
     inkscape:cx="583.86633"
     inkscape:zoom="0.73828129"
     showgrid="false"
     id="namedview336"
     inkscape:window-height="1386"
     inkscape:window-width="2488"
     inkscape:pageshadow="2"
     inkscape:pageopacity="0"
     guidetolerance="10"
     gridtolerance="10"
     objecttolerance="10"
     borderopacity="1"
     bordercolor="#666666"
     pagecolor="#ffffff"
     inkscape:document-rotation="0" /><g
     transform="matrix(1.3333333,0,0,-1.3333333,0,1365.3333)"
     inkscape:label="Project_4_Rev_Fin"
     inkscape:groupmode="layer"
     id="g342"><g
       inkscape:export-ydpi="1.1767112"
       inkscape:export-xdpi="1.1767112"
       transform="matrix(0.95605447,0,0,0.95605447,22.500001,22.500223)"
       id="g344"><g
         id="g346"><g
           id="g352"><g
             id="g354"><path
               id="path362"
               style="fill:url(#linearGradient360);stroke:none"
               d="M 255.248,1024 C 114.278,1024 0,909.722 0,768.752 v 0 -513.504 C 0,114.278 114.278,0 255.248,0 V 0 H 768.752 C 909.722,0 1024,114.278 1024,255.248 v 0 513.504 c 0,63.488 -23.179,121.562 -61.537,166.222 v 0 C 915.651,989.477 846.233,1024 768.752,1024 v 0 z" /></g></g></g></g><g
       id="g364"><g
         clip-path="url(#clipPath370)"
         id="g366"><g
           transform="translate(418.6087,842.3691)"
           id="g372"><path
             id="path374"
             style="fill:#ffffff;fill-opacity:1;fill-rule:nonzero;stroke:none"
             d="m 0,0 v 0 h -235.457 v 0 c 0,-104.838 84.988,-189.825 189.825,-189.825 H 0 V -470.913 C 0,-575.75 84.987,-660.738 189.825,-660.738 v 0 470.913 C 189.825,-84.988 104.837,0 0,0" /></g><g
           transform="translate(605.3917,842.3691)"
           id="g376"><path
             id="path378"
             style="fill:#ffffff;fill-opacity:1;fill-rule:nonzero;stroke:none"
             d="m 0,0 v 0 c 0,-104.838 84.988,-189.825 189.825,-189.825 h 45.631 V 0 Z" /></g></g></g></g></svg>
